<?xml version="1.0" standalone="no"?>
<!DOCTYPE svg PUBLIC "-//W3C//DTD SVG 20010904//EN"
 "http://www.w3.org/TR/2001/REC-SVG-20010904/DTD/svg10.dtd">
<svg version="1.0" xmlns="http://www.w3.org/2000/svg"
 width="260.000000pt" height="260.000000pt" viewBox="0 0 260.000000 260.000000"
 preserveAspectRatio="xMidYMid meet">
<metadata>
Created by potrace 1.11, written by Peter Selinger 2001-2013
</metadata>
<g transform="translate(0.000000,260.000000) scale(0.100000,-0.100000)"
fill="#000000" stroke="none">
<path d="M694 2409 c-10 -4 -63 -15 -117 -25 -81 -15 -105 -16 -142 -6 -25 7
-56 12 -70 12 -31 0 -105 -29 -105 -41 0 -6 -31 -41 -69 -78 -65 -66 -70 -69
-110 -66 -36 2 -44 -1 -50 -19 -7 -18 -4 -75 4 -84 2 -2 -6 -28 -16 -59 -12
-32 -17 -64 -13 -76 13 -43 71 -110 146 -169 33 -26 34 -28 33 -100 0 -40 3
-80 7 -89 4 -9 29 -24 55 -34 26 -10 77 -31 112 -48 61 -29 126 -42 136 -28 2
4 23 6 47 5 24 -1 78 -5 121 -8 59 -3 82 -9 91 -22 9 -12 21 -15 42 -11 18 3
56 -5 106 -23 107 -39 204 -34 256 14 35 31 51 68 47 107 -5 51 -14 111 -20
139 -3 14 -7 50 -9 81 -4 60 -20 92 -85 161 -32 35 -35 42 -33 100 1 35 6 84
10 110 7 33 6 53 -3 65 -6 10 -22 43 -34 74 -12 31 -35 71 -50 90 l-28 34
-120 0 c-66 1 -128 -2 -139 -6z"/>
<path d="M1892 2332 c-13 -4 -40 -23 -60 -43 -20 -20 -54 -42 -74 -48 -20 -7
-51 -28 -68 -47 -28 -33 -30 -39 -26 -96 4 -46 9 -64 23 -71 10 -6 36 -30 58
-54 23 -23 48 -43 57 -43 21 0 94 -39 123 -66 14 -13 27 -43 35 -80 7 -32 24
-90 39 -128 21 -56 34 -75 69 -100 49 -35 125 -81 161 -96 39 -17 150 -18 164
-1 6 7 29 25 50 38 63 40 122 99 142 142 15 35 16 46 5 88 -6 26 -14 73 -16
103 -7 79 -33 176 -65 241 -23 47 -40 64 -112 113 -52 36 -98 59 -123 62 -21
3 -67 15 -101 26 -48 16 -68 18 -91 10 -26 -9 -35 -6 -78 24 -47 34 -67 38
-112 26z"/>
<path d="M1521 1185 c-54 -20 -75 -35 -132 -97 -38 -41 -85 -108 -110 -153
-23 -44 -51 -93 -63 -110 -12 -16 -27 -52 -34 -80 -7 -27 -29 -70 -48 -95 -19
-24 -42 -69 -50 -100 -9 -30 -25 -81 -35 -113 -16 -46 -18 -74 -14 -140 9
-124 8 -123 62 -138 26 -7 59 -25 74 -40 47 -48 66 -53 214 -57 162 -4 177 0
272 76 34 28 73 54 85 58 13 3 34 15 48 24 14 10 33 19 42 21 9 2 61 45 115
96 93 86 143 155 143 197 0 9 14 43 30 76 39 77 41 138 5 176 -14 15 -25 35
-25 44 0 9 -3 20 -6 23 -4 4 -8 24 -10 46 -7 72 -51 165 -102 213 -60 57 -81
68 -142 74 -28 2 -62 9 -76 14 -48 19 -174 11 -243 -15z"/>
</g>
</svg>
